<svg width="11" height="11" viewBox="0 0 11 11" fill="none" xmlns="http://www.w3.org/2000/svg">
<rect width="11" height="11" fill="#AEB4E0" fill-opacity="0.12"/>
<path d="M2.39453 9V1.72727H4.36896V4.66761H4.46839L6.65589 1.72727H8.95703L6.49964 4.96591L9.01385 9H6.65589L5.02237 6.27273L4.36896 7.125V9H2.39453Z" fill="#FF4A57"/>
<path d="M2.39453 9H1.39453V10H2.39453V9ZM2.39453 1.72727V0.727273H1.39453V1.72727H2.39453ZM4.36896 1.72727H5.36896V0.727273H4.36896V1.72727ZM4.36896 4.66761H3.36896V5.66761H4.36896V4.66761ZM4.46839 4.66761V5.66761H4.97082L5.27071 5.26451L4.46839 4.66761ZM6.65589 1.72727V0.727273H6.15347L5.85358 1.13038L6.65589 1.72727ZM8.95703 1.72727L9.75366 2.33174L10.9711 0.727273H8.95703V1.72727ZM6.49964 4.96591L5.70301 4.36145L5.28662 4.91022L5.65098 5.49483L6.49964 4.96591ZM9.01385 9V10H10.8154L9.86252 8.47108L9.01385 9ZM6.65589 9L5.79801 9.51384L6.0892 10H6.65589V9ZM5.02237 6.27273L5.88026 5.75889L5.12411 4.49645L4.22877 5.6643L5.02237 6.27273ZM4.36896 7.125L3.57536 6.51657L3.36896 6.78578V7.125H4.36896ZM4.36896 9V10H5.36896V9H4.36896ZM3.39453 9V1.72727H1.39453V9H3.39453ZM2.39453 2.72727H4.36896V0.727273H2.39453V2.72727ZM3.36896 1.72727V4.66761H5.36896V1.72727H3.36896ZM4.36896 5.66761H4.46839V3.66761H4.36896V5.66761ZM5.27071 5.26451L7.45821 2.32417L5.85358 1.13038L3.66608 4.07072L5.27071 5.26451ZM6.65589 2.72727H8.95703V0.727273H6.65589V2.72727ZM8.1604 1.12281L5.70301 4.36145L7.29628 5.57037L9.75366 2.33174L8.1604 1.12281ZM5.65098 5.49483L8.16518 9.52892L9.86252 8.47108L7.34831 4.43699L5.65098 5.49483ZM9.01385 8H6.65589V10H9.01385V8ZM7.51378 8.48616L5.88026 5.75889L4.16449 6.78657L5.79801 9.51384L7.51378 8.48616ZM4.22877 5.6643L3.57536 6.51657L5.16257 7.73343L5.81598 6.88116L4.22877 5.6643ZM3.36896 7.125V9H5.36896V7.125H3.36896ZM4.36896 8H2.39453V10H4.36896V8Z" fill="#7988E9" fill-opacity="0.28"/>
</svg>
